<?xml version="1.0" encoding="utf-8"?>
<!-- Generator: Adobe Illustrator 19.2.1, SVG Export Plug-In . SVG Version: 6.00 Build 0)  -->
<svg version="1.1" id="Слой_1" xmlns="http://www.w3.org/2000/svg" xmlns:xlink="http://www.w3.org/1999/xlink" x="0px" y="0px"
	 viewBox="0 0 24 24" style="enable-background:new 0 0 24 24;" xml:space="preserve">
<path class="st0" d="M9,24l-0.8-0.8l3.4-3.4c1-1,1.5-2.3,1.5-3.7c0-1.4-0.5-2.7-1.5-3.7c-1-1-2.3-1.5-3.7-1.5
	c-1.4,0-2.7,0.5-3.7,1.5l-3.4,3.4L0,15l3.4-3.4c1.2-1.2,2.8-1.9,4.5-1.9c1.7,0,3.3,0.7,4.5,1.9c1.2,1.2,1.9,2.8,1.9,4.5
	c0,1.7-0.7,3.3-1.9,4.5L9,24z"/>
<path class="st0" d="M12.7,19.4l-8.1-8.1l0.8-0.8l8.1,8.1L12.7,19.4z"/>
<path class="st0" d="M9.8,22.3l-8.1-8.1l0.8-0.8l8.1,8.1L9.8,22.3z"/>
<path class="st0" d="M16.1,14.3c-1.7,0-3.3-0.7-4.5-1.9c-1.2-1.2-1.9-2.8-1.9-4.5c0-1.7,0.7-3.3,1.9-4.5L15,0l0.8,0.8l-3.4,3.4
	c-1,1-1.5,2.3-1.5,3.7c0,1.4,0.5,2.7,1.5,3.7c1,1,2.3,1.5,3.7,1.5c1.4,0,2.7-0.5,3.7-1.5l3.4-3.4L24,9l-3.4,3.4
	C19.4,13.6,17.8,14.3,16.1,14.3z"/>
<path class="st0" d="M18.5,13.6l-8.1-8.1l0.8-0.8l8.1,8.1L18.5,13.6z"/>
<path class="st0" d="M21.4,10.7l-8.1-8.1l0.8-0.8l8.1,8.1L21.4,10.7z"/>
</svg>
