<?xml version="1.0" encoding="utf-8"?>
<!-- Generator: Adobe Illustrator 19.2.1, SVG Export Plug-In . SVG Version: 6.00 Build 0)  -->
<svg version="1.1" id="Слой_1" xmlns="http://www.w3.org/2000/svg" xmlns:xlink="http://www.w3.org/1999/xlink" x="0px" y="0px"
	 viewBox="0 0 17 20" style="enable-background:new 0 0 17 20;" xml:space="preserve">
<path class="st0" d="M13.3,20H3.7C1.7,20,0,18.4,0,16.5v-11h1.1v11c0,1.4,1.2,2.5,2.7,2.5h9.6c1.5,0,2.7-1.1,2.7-2.5v-11H17v11
	C17,18.4,15.3,20,13.3,20z"/>
<path class="st0" d="M17,6H0V5h17V6z"/>
<path class="st0" d="M13.8,9h-1.1V5c0-2.2-1.9-4-4.3-4C6.2,1,4.3,2.8,4.3,5v4H3.2V5c0-2.8,2.4-5,5.3-5c2.9,0,5.3,2.2,5.3,5V9z"/>
</svg>
