<?xml version="1.0" encoding="utf-8"?>
<!-- Generator: Adobe Illustrator 19.2.1, SVG Export Plug-In . SVG Version: 6.00 Build 0)  -->
<svg version="1.1" id="Слой_1" xmlns="http://www.w3.org/2000/svg" xmlns:xlink="http://www.w3.org/1999/xlink" x="0px" y="0px"
	 viewBox="0 0 26.5 9.1" style="enable-background:new 0 0 26.5 9.1;" xml:space="preserve">
<path class="st0" d="M4.1,5.1h2.7v3.1C6.3,8.5,5.5,8.6,4.7,8.6c-1.3,0-2.3-0.3-3-1c-0.7-0.7-1-1.7-1-3c0-1.2,0.4-2.2,1.1-2.9
	c0.7-0.7,1.7-1.1,2.9-1.1c0.9,0,1.7,0.2,2.5,0.5l0.3-0.6C6.6,0.2,5.7,0,4.7,0C3.8,0,2.9,0.2,2.2,0.6C1.5,1,1,1.5,0.6,2.2
	C0.2,2.9,0,3.7,0,4.6C0,6,0.4,7.2,1.2,8c0.8,0.8,1.9,1.2,3.3,1.2c1.1,0,2.1-0.2,3-0.5v-4H4.1V5.1z"/>
<path class="st0" d="M14.3,9l3.4-8.2h0.1c-0.1,0.5-0.1,1-0.1,1.5V9h0.6V0.1h-1l-3.3,7.8h0l-3.3-7.8h-1V9h0.6V2.4c0-0.5,0-1-0.1-1.5
	h0.1L13.9,9H14.3z"/>
<path class="st0" d="M23.2,0.1h-2.3V9h0.6V5.3H23c1.1,0,2-0.2,2.6-0.7c0.6-0.5,0.9-1.1,0.9-2C26.5,1,25.4,0.1,23.2,0.1L23.2,0.1z
	 M21.6,0.7h1.5c0.9,0,1.6,0.2,2,0.5c0.4,0.3,0.7,0.8,0.7,1.5c0,0.7-0.2,1.3-0.7,1.6c-0.5,0.3-1.2,0.5-2.2,0.5h-1.3V0.7z"/>
</svg>
