<?xml version="1.0" encoding="utf-8"?>
<!-- Generator: Adobe Illustrator 19.2.1, SVG Export Plug-In . SVG Version: 6.00 Build 0)  -->
<svg version="1.1" id="Слой_1" xmlns="http://www.w3.org/2000/svg" xmlns:xlink="http://www.w3.org/1999/xlink" x="0px" y="0px"
	 viewBox="0 0 20 20" style="enable-background:new 0 0 20 20;" xml:space="preserve">
<path class="st0" d="M10,14.1L0.3,9.5l0.4-0.9l9.3,4.4l9.3-4.4l0.4,0.9L10,14.1z"/>
<path class="st0" d="M16.5,20h-13C1.6,20,0,18.4,0,16.5v-10h1v10C1,17.9,2.1,19,3.5,19h13c1.4,0,2.5-1.1,2.5-2.5v-10h1v10
	C20,18.4,18.4,20,16.5,20z"/>
<path class="st0" d="M17,10.4h-1V1H4v9.4H3V0.5C3,0.2,3.2,0,3.5,0h13C16.8,0,17,0.2,17,0.5V10.4z"/>
<path class="st0" d="M14,5H6V4h8V5z"/>
<path class="st0" d="M3.5,7H0V6h3.5V7z"/>
<path class="st0" d="M20,7h-3.5V6H20V7z"/>
</svg>
