<svg id="Слой_1" data-name="Слой 1" xmlns="http://www.w3.org/2000/svg" viewBox="0 0 13.58 18"><defs></defs><title>Contact_v03 [преобразованный]</title><path class="cls-1" d="M6.84,2.29c3.39,0,4.91,2.55,4.91,5.07,0,2.22-1.59,5.18-4.71,8.78L7,16.19l-0.07-.05-0.26-.3c-2-2.34-4.84-5.55-4.84-8.48a5.12,5.12,0,0,1,5-5.07m0-1a6.13,6.13,0,0,0-6,6.07c0,3.44,3.2,7,5.35,9.44a1.22,1.22,0,0,0,.78.4H7a1.21,1.21,0,0,0,.78-0.4c2-2.32,5-6.15,5-9.44A5.73,5.73,0,0,0,6.84,1.3h0Z"/><path class="cls-1" d="M6.78,5.28a2,2,0,0,1,0,4,2,2,0,0,1-2-2,2,2,0,0,1,2-2m0-1a3,3,0,1,0,3,3,3,3,0,0,0-3-3h0Z"/></svg>