<?xml version="1.0" encoding="utf-8"?>
<!-- Generator: Adobe Illustrator 19.2.1, SVG Export Plug-In . SVG Version: 6.00 Build 0)  -->
<svg version="1.1" id="Слой_1" xmlns="http://www.w3.org/2000/svg" xmlns:xlink="http://www.w3.org/1999/xlink" x="0px" y="0px"
	 viewBox="0 0 16.1 11.1" style="enable-background:new 0 0 16.1 11.1;" xml:space="preserve">
<path class="st0" d="M14.8,1c0.3,0,0.3,0,0.3,0.3v8.1c0,0.3,0,0.8-0.3,0.8h-13C1.5,10.1,1,9.6,1,9.3V1.3C1,1,1.5,1,1.8,1h12.8
	 M14.8,0h-13C0.9,0,0,0.4,0,1.3v8.1c0,0.8,0.9,1.8,1.8,1.8h13c0.8,0,1.3-0.9,1.3-1.8V1.3C16.1,0.4,15.6,0,14.8,0L14.8,0z"/>
<path class="st0" d="M8,7.6c-0.1,0-0.2,0-0.3-0.1l-7.5-6C0,1.3-0.1,0.9,0.1,0.7c0.2-0.2,0.5-0.2,0.7-0.1L8,6.4l7.2-5.8
	c0.2-0.2,0.5-0.2,0.7,0.1c0.2,0.2,0.2,0.5-0.1,0.7l-7.5,6C8.3,7.6,8.1,7.6,8,7.6z"/>
</svg>
