<?xml version="1.0" encoding="utf-8"?>
<!-- Generator: Adobe Illustrator 19.2.1, SVG Export Plug-In . SVG Version: 6.00 Build 0)  -->
<svg version="1.1" id="Слой_1" xmlns="http://www.w3.org/2000/svg" xmlns:xlink="http://www.w3.org/1999/xlink" x="0px" y="0px"
	 viewBox="0 0 26.6 28.5" style="enable-background:new 0 0 26.6 28.5;" xml:space="preserve">
<path class="st0" d="M26.4,20.4c-0.3-0.3-0.7-0.5-1.1-0.4c-1.9,0.5-3.8,0.5-5.6,0c-5.8-1.6-9.3-7.6-7.8-13.4
	c0.5-1.8,1.4-3.5,2.9-4.9C15,1.5,15.1,1,15,0.6C14.8,0.2,14.4,0,14,0c-3,0.1-6,1.1-8.4,2.9C3,4.9,1.3,7.5,0.5,10.5
	C-1.5,18.1,3,25.9,10.6,28c3,0.8,6.2,0.6,9.1-0.6c2.8-1.2,5.2-3.2,6.8-5.8C26.7,21.2,26.6,20.7,26.4,20.4z M11.1,26
	c-6.5-1.7-10.4-8.4-8.6-14.9c1.2-4.4,4.7-7.7,9.1-8.7c-0.8,1.1-1.3,2.4-1.7,3.7C8,13,12.2,20.2,19.1,22c1.3,0.4,2.7,0.5,4.1,0.4
	C20.2,25.7,15.5,27.2,11.1,26z"/>
</svg>
