<?xml version="1.0" encoding="utf-8"?>
<!-- Generator: Adobe Illustrator 19.2.1, SVG Export Plug-In . SVG Version: 6.00 Build 0)  -->
<svg version="1.1" id="Layer_1" xmlns="http://www.w3.org/2000/svg" xmlns:xlink="http://www.w3.org/1999/xlink" x="0px" y="0px"
	 viewBox="0 0 51.6 51.6" style="enable-background:new 0 0 51.6 51.6;" xml:space="preserve">
<style type="text/css">
	.st0{fill-rule:evenodd;clip-rule:evenodd;fill:none;;stroke-width:1.0001;}
</style>
<g>
	<path class="st0" d="M25.8,51.1c13.8,0,25.3-11.4,25.3-25.3c0-13.9-11.4-25.3-25.3-25.3C11.9,0.5,0.5,11.9,0.5,25.8
		C0.5,39.7,11.9,51.1,25.8,51.1z"/>
	<path class="st0" d="M25.6,9.1c-13.5,14.2-14.7,28.1-0.1,41.7C40.3,37.2,39.1,23.3,25.6,9.1z"/>
	<path class="st0" d="M25.3,50.8c-13.7-0.1-24.7-11.3-24.7-25c0-0.6,0-1.1,0-1.7C1.5,24,2.4,24,3.3,24C15.7,24,25.8,34,25.8,46.3
		C25.8,47.9,25.6,49.4,25.3,50.8z"/>
	<path class="st0" d="M26.2,50.8c13.7-0.1,25-11.3,24.8-25c0-0.6,0-1.1,0-1.6c-0.9-0.1-1.9-0.2-2.9-0.2C35.8,24,25.8,34,25.8,46.3
		C25.8,47.9,25.9,49.4,26.2,50.8z"/>
	<path class="st0" d="M36,27.6c1,7.4-2.1,14.9-9.7,22.1c-0.2-1.1-0.4-2.2-0.4-3.4C25.7,38.7,29.9,31.6,36,27.6z"/>
	<path class="st0" d="M15.4,27.6c-1,7.4,1.9,14.8,9.5,22c0.1-1.1,0.5-2.2,0.5-3.4C25.5,38.6,21.5,31.6,15.4,27.6z"/>
</g>
</svg>
