<?xml version="1.0" encoding="utf-8"?>
<!-- Generator: Adobe Illustrator 19.2.1, SVG Export Plug-In . SVG Version: 6.00 Build 0)  -->
<svg version="1.1" id="Слой_1" xmlns="http://www.w3.org/2000/svg" xmlns:xlink="http://www.w3.org/1999/xlink" x="0px" y="0px"
	 viewBox="0 0 22 21" style="enable-background:new 0 0 22 21;" xml:space="preserve">
<path class="st0" d="M17.6,8.8c-2.4,0-4.4-2-4.4-4.4s2-4.4,4.4-4.4C20,0,22,2,22,4.4S20,8.8,17.6,8.8z M17.6,1.1
	c-1.8,0-3.3,1.5-3.3,3.3c0,1.8,1.5,3.3,3.3,3.3c1.8,0,3.3-1.5,3.3-3.3C20.9,2.6,19.4,1.1,17.6,1.1z"/>
<path class="st0" d="M4.4,14.4C2,14.4,0,12.4,0,9.9c0-2.4,2-4.4,4.4-4.4s4.4,2,4.4,4.4C8.8,12.4,6.8,14.4,4.4,14.4z M4.4,6.6
	c-1.8,0-3.3,1.5-3.3,3.3c0,1.8,1.5,3.3,3.3,3.3c1.8,0,3.3-1.5,3.3-3.3C7.7,8.1,6.2,6.6,4.4,6.6z"/>
<path class="st0" d="M17.6,21c-2.4,0-4.4-2-4.4-4.4c0-2.4,2-4.4,4.4-4.4c2.4,0,4.4,2,4.4,4.4C22,19,20,21,17.6,21z M17.6,13.3
	c-1.8,0-3.3,1.5-3.3,3.3c0,1.8,1.5,3.3,3.3,3.3c1.8,0,3.3-1.5,3.3-3.3C20.9,14.8,19.4,13.3,17.6,13.3z"/>
<path class="st0" d="M13.9,15.3l-6.3-3.2l0.5-1l6.3,3.2L13.9,15.3z"/>
<path class="st0" d="M8.2,9l-0.4-1l6.1-2.6l0.4,1L8.2,9z"/>
</svg>
