<?xml version="1.0" encoding="utf-8"?>
<!-- Generator: Adobe Illustrator 19.2.1, SVG Export Plug-In . SVG Version: 6.00 Build 0)  -->
<svg version="1.1" id="Слой_1" xmlns="http://www.w3.org/2000/svg" xmlns:xlink="http://www.w3.org/1999/xlink" x="0px" y="0px"
	 viewBox="0 0 34 34" style="enable-background:new 0 0 34 34;" xml:space="preserve">
<path class="st0" d="M17,0C7.6,0,0,7.6,0,17c0,9.4,7.6,17,17,17c9.4,0,17-7.6,17-17C34,7.6,26.4,0,17,0z M17,32.2
	c-4.2,0-7.9-1.7-10.7-4.4c-1.1-1.1-2-2.3-2.7-3.7c-1.1-2.1-1.7-4.5-1.7-7C1.8,8.6,8.6,1.8,17,1.8c4,0,7.6,1.5,10.3,4
	c1.4,1.3,2.6,2.9,3.4,4.6c1,2,1.5,4.2,1.5,6.5C32.2,25.4,25.4,32.2,17,32.2z"/>
<path class="st0" d="M11.2,13.1c1,0,1.8,0.8,1.8,1.8h1.8c0-2.1-1.6-3.6-3.6-3.6c-2,0-3.6,1.6-3.6,3.6h1.8
	C9.4,13.9,10.2,13.1,11.2,13.1z"/>
<path class="st0" d="M22.8,13.1c1,0,1.8,0.8,1.8,1.8h1.8c0-2.1-1.6-3.6-3.6-3.6c-2,0-3.6,1.6-3.6,3.6H21
	C21,13.9,21.8,13.1,22.8,13.1z"/>
<path class="st0" d="M17,26.4c3.6,0,7-1.8,8.9-4.8l-1.5-1c-1.8,2.8-5.1,4.3-8.4,3.9c-2.6-0.3-4.9-1.8-6.3-3.9l-1.5,1
	c1.7,2.6,4.6,4.4,7.7,4.8C16.2,26.4,16.6,26.4,17,26.4z"/>
</svg>
