<?xml version="1.0" encoding="utf-8"?>
<!-- Generator: Adobe Illustrator 19.0.0, SVG Export Plug-In . SVG Version: 6.00 Build 0)  -->
<svg version="1.1" id="Слой_1" xmlns="http://www.w3.org/2000/svg" xmlns:xlink="http://www.w3.org/1999/xlink" x="0px" y="0px"
	 viewBox="0 0 28 36" style="enable-background:new 0 0 28 36;" xml:space="preserve">
<style type="text/css">
	.st0{fill:#6BCDF5;}
</style>
<path class="st0" d="M20,19.7c-0.1-1.4-0.4-2.7-1-4l-0.6-1.4c-0.8-1.9-1.2-3.9-1.4-5.9L16.9,5l0.3-0.9c0-0.1,0.1-0.3,0-0.4l-0.3-2.7
	c-0.1-0.5-0.4-0.8-0.9-0.8h-3c-0.5,0-0.8,0.3-0.9,0.8l-0.3,2.7c0,0.1,0,0.3,0,0.4L12.1,5l-0.3,3.4c-0.2,2-0.6,4-1.4,5.9l-0.6,1.4
	c-0.5,1.3-0.8,2.6-1,4c0,0.4-0.1,0.8-0.1,1.2v12.4c0,1.3,1.1,2.4,2.5,2.4h6.3c1.4,0,2.5-1.1,2.5-2.4V20.9
	C20.1,20.5,20.1,20.1,20,19.7z M18.3,33.3c0,0.3-0.3,0.6-0.7,0.6h-6.3c-0.4,0-0.7-0.3-0.7-0.6V20.9c0-0.3,0-0.7,0-1
	c0.1-1.2,0.4-2.4,0.8-3.5l0.6-1.4c0.8-2.1,1.3-4.2,1.5-6.5l0.3-3.6c0-0.1,0-0.2,0-0.4l-0.3-0.8l0.2-1.7h1.4l0.2,1.7l-0.3,0.8
	c0,0.1-0.1,0.2,0,0.4l0.3,3.6c0.2,2.2,0.7,4.4,1.5,6.5l0.6,1.4c0.5,1.1,0.7,2.3,0.8,3.5c0,0.3,0,0.7,0,1V33.3L18.3,33.3z"/>
</svg>
