<?xml version="1.0" encoding="utf-8"?>
<!-- Generator: Adobe Illustrator 19.0.0, SVG Export Plug-In . SVG Version: 6.00 Build 0)  -->
<svg version="1.1" id="Слой_1" xmlns="http://www.w3.org/2000/svg" xmlns:xlink="http://www.w3.org/1999/xlink" x="0px" y="0px"
	 viewBox="0 0 46.2 28.7" style="enable-background:new 0 0 46.2 28.7;" xml:space="preserve">
<style type="text/css">
	.st0{fill:none;stroke:#6BCDF5;stroke-width:1.7;stroke-miterlimit:10;}
</style>
<g>
	<path class="st0" d="M38.3,15.6c-0.8,2.2-1.7,4.2-2.6,5.2c-2.4,2.8-6.4,3.3-9.4,1.4c-0.8,0.5-1.8,0.8-2.7,0.9
		c1.1,3.1,4.3,5.2,7.8,4.7c4-0.5,14.2-7.2,14-8.6C45.3,18.7,42,17,38.3,15.6z"/>
	<path class="st0" d="M10.8,20.7c-0.9-1-1.8-3-2.6-5.3c-3.8,1.5-7.3,3.2-7.3,3.7c-0.2,1.5,10,8.1,14,8.6c3.4,0.4,6.6-1.6,7.7-4.7
		c-1,0-1.9-0.3-2.8-0.7C16.9,24,13.1,23.4,10.8,20.7z"/>
	<path class="st0" d="M30,15.8c0,2.7-1.5,5.1-3.7,6.4c3,1.9,7,1.4,9.4-1.4c0.9-1,1.8-3,2.6-5.2c1.6-4.5,2.7-10,2-10.6
		C39.8,4.5,32.7,6.6,28.1,9C29.2,11.6,30,14.2,30,15.8z"/>
	<path class="st0" d="M19.8,22.4c-2.5-1.2-4.2-3.7-4.2-6.6c0-1.6,1.1-4.3,2.4-7C13.5,6.5,6.8,4.5,6.3,4.9C5.5,5.5,6.6,11,8.2,15.4
		c0.8,2.3,1.7,4.3,2.6,5.3C13.1,23.4,16.9,24,19.8,22.4z"/>
	<path class="st0" d="M30,15.8c0-1.6-0.8-4.2-1.9-6.8c-1.7-4.1-4.1-8.2-5-8.2c-0.5,0-3.2,3.9-5.2,7.9c-1.3,2.7-2.4,5.4-2.4,7
		c0,2.9,1.7,5.5,4.2,6.6c0.9,0.4,1.8,0.6,2.8,0.7c0.1,0,0.1,0,0.2,0c0.3,0,0.5,0,0.8-0.1c1-0.1,1.9-0.4,2.7-0.9
		C28.6,20.9,30,18.5,30,15.8z"/>
</g>
</svg>
