<?xml version="1.0" encoding="utf-8"?>
<!-- Generator: Adobe Illustrator 19.0.0, SVG Export Plug-In . SVG Version: 6.00 Build 0)  -->
<svg version="1.1" id="Слой_1" xmlns="http://www.w3.org/2000/svg" xmlns:xlink="http://www.w3.org/1999/xlink" x="0px" y="0px"
	 viewBox="-290 381 31 31" style="enable-background:new -290 381 31 31;" xml:space="preserve">
<style type="text/css">
	.st0{fill:#E89ED7;}
</style>
<g>
	<g>
		<path class="st0" d="M-274.5,412c-8.6,0-15.5-7-15.5-15.5c0-8.6,7-15.5,15.5-15.5s15.5,7,15.5,15.5
			C-259,405.1-265.9,412-274.5,412z M-274.5,382.7c-7.6,0-13.8,6.2-13.8,13.8c0,7.6,6.2,13.8,13.8,13.8c7.6,0,13.8-6.2,13.8-13.8
			C-260.7,388.9-266.9,382.7-274.5,382.7z"/>
	</g>
</g>
<path class="st0" d="M-269.7,394.9h-3.2v-3.2c0-0.4-0.4-0.8-0.8-0.8h-1.6c-0.4,0-0.8,0.4-0.8,0.8v3.2h-3.2c-0.4,0-0.8,0.4-0.8,0.8
	v1.6c0,0.4,0.4,0.8,0.8,0.8h3.2v3.2c0,0.4,0.4,0.8,0.8,0.8h1.6c0.4,0,0.8-0.4,0.8-0.8v-3.2h3.2c0.4,0,0.8-0.4,0.8-0.8v-1.6
	C-268.9,395.3-269.2,394.9-269.7,394.9z"/>
</svg>
