<?xml version="1.0" encoding="utf-8"?>
<!-- Generator: Adobe Illustrator 19.0.0, SVG Export Plug-In . SVG Version: 6.00 Build 0)  -->
<svg version="1.1" id="Слой_1" xmlns="http://www.w3.org/2000/svg" xmlns:xlink="http://www.w3.org/1999/xlink" x="0px" y="0px"
	 viewBox="-293 384 25 25" style="enable-background:new -293 384 25 25;" xml:space="preserve">
<style type="text/css">
	.st0{fill:#FFFFFF;}
</style>
<g>
	<g>
		<path class="st0" d="M-280.5,385.1c-6.3,0-11.4,5.1-11.4,11.4s5.1,11.4,11.4,11.4s11.4-5.1,11.4-11.4S-274.2,385.1-280.5,385.1z
			 M-280.5,406.7c-2.8,0-5.3-1.1-7.2-3c-0.7-0.7-1.3-1.6-1.8-2.5c-0.7-1.4-1.2-3-1.2-4.7c0-5.6,4.6-10.2,10.2-10.2
			c2.7,0,5.1,1,6.9,2.7c0.9,0.9,1.7,1.9,2.3,3.1c0.6,1.3,1,2.8,1,4.4C-270.3,402.1-274.9,406.7-280.5,406.7z"/>
	</g>
</g>
<g>
	<path class="st0" d="M-284.4,394.2c0.1-1.2,0.5-2.2,1.2-2.9c0.7-0.7,1.7-1.1,2.9-1.1c0.6,0,1.1,0.1,1.6,0.3
		c0.5,0.2,0.8,0.5,1.2,0.9c0.3,0.4,0.5,0.8,0.7,1.2c0.2,0.5,0.2,0.9,0.2,1.4c0,0.4,0,0.8-0.1,1.1c-0.1,0.3-0.2,0.6-0.4,0.9
		c-0.2,0.3-0.4,0.5-0.6,0.7c-0.2,0.2-0.5,0.4-0.8,0.6c-0.5,0.4-1.1,0.8-1.6,1.2c-0.6,0.4-1.1,0.8-1.6,1.3c-0.2,0.2-0.3,0.4-0.5,0.6
		c-0.1,0.2-0.2,0.4-0.3,0.7h5.7v1.5h-7.4v-1.2c0-0.5,0.2-1,0.5-1.4c0.3-0.5,0.7-0.9,1.2-1.4c0.5-0.4,1-0.9,1.6-1.3
		c0.6-0.4,1.1-0.8,1.6-1.2c0.4-0.3,0.7-0.6,0.9-0.9c0.2-0.3,0.3-0.8,0.3-1.3c0-0.7-0.2-1.3-0.6-1.7c-0.4-0.4-0.9-0.6-1.5-0.6
		c-0.7,0-1.3,0.2-1.8,0.7c-0.4,0.5-0.7,1.1-0.7,1.9L-284.4,394.2L-284.4,394.2z"/>
</g>
</svg>
