<?xml version="1.0" encoding="utf-8"?>
<!-- Generator: Adobe Illustrator 19.0.0, SVG Export Plug-In . SVG Version: 6.00 Build 0)  -->
<svg version="1.1" id="Слой_1" xmlns="http://www.w3.org/2000/svg" xmlns:xlink="http://www.w3.org/1999/xlink" x="0px" y="0px"
	 viewBox="0 0 16 23" style="enable-background:new 0 0 16 23;" xml:space="preserve">
<style type="text/css">
	.st0{fill:#FFFFFF;}
</style>
<g>
	<path class="st0" d="M12,1.4H1.9c-0.7,0-1.2,0.6-1.2,1.2v17.6c0,0.7,0.6,1.2,1.2,1.2h12.4c0.7,0,1.2-0.6,1.2-1.2v-15L12,1.4z
		 M12.3,3.2l1.5,1.7h-1.5V3.2z M14.5,20.2c0,0.1-0.1,0.2-0.2,0.2H1.9c-0.1,0-0.2-0.1-0.2-0.2V2.6c0-0.1,0.1-0.2,0.2-0.2h9.4v3
		c0,0.3,0.2,0.5,0.5,0.5h2.7L14.5,20.2L14.5,20.2L14.5,20.2z"/>
</g>
</svg>
