<?xml version="1.0" encoding="utf-8"?>
<!-- Generator: Adobe Illustrator 19.0.0, SVG Export Plug-In . SVG Version: 6.00 Build 0)  -->
<svg version="1.1" id="Слой_1" xmlns="http://www.w3.org/2000/svg" xmlns:xlink="http://www.w3.org/1999/xlink" x="0px" y="0px"
	 viewBox="0 0 25 25" style="enable-background:new 0 0 25 25;" xml:space="preserve">
<style type="text/css">
	.st0{fill:#FFFFFF;}
</style>
<g>
	<g>
		<path class="st0" d="M12.5,1.1C6.2,1.1,1.1,6.2,1.1,12.5c0,6.3,5.1,11.4,11.4,11.4s11.4-5.1,11.4-11.4C23.9,6.2,18.8,1.1,12.5,1.1
			z M12.5,22.7c-2.8,0-5.3-1.1-7.2-3C4.6,19,4,18.1,3.5,17.2c-0.7-1.4-1.2-3-1.2-4.7c0-5.6,4.6-10.2,10.2-10.2c2.7,0,5.1,1,6.9,2.7
			c0.9,0.9,1.7,1.9,2.3,3.1c0.6,1.3,1,2.8,1,4.4C22.7,18.1,18.1,22.7,12.5,22.7z M8.6,9.9c0.7,0,1.2,0.5,1.2,1.2H11
			c0-1.4-1.1-2.4-2.4-2.4c-1.3,0-2.4,1-2.4,2.4h1.2C7.4,10.4,7.9,9.9,8.6,9.9z M16.4,8.7c-1.3,0-2.4,1-2.4,2.4h1.2
			c0-0.7,0.5-1.2,1.2-1.2c0.7,0,1.2,0.5,1.2,1.2h1.2C18.8,9.7,17.7,8.7,16.4,8.7z M11.8,17.6c-1.7-0.2-3.3-1.2-4.2-2.6l-1,0.7
			c1.1,1.8,3.1,3,5.1,3.2c0.3,0,0.5,0,0.8,0c2.4,0,4.7-1.2,6-3.2l-1-0.7C16.2,16.8,14,17.8,11.8,17.6z"/>
	</g>
</g>
</svg>
