<?xml version="1.0" encoding="utf-8"?>
<!-- Generator: Adobe Illustrator 19.0.0, SVG Export Plug-In . SVG Version: 6.00 Build 0)  -->
<svg version="1.1" id="Слой_1" xmlns="http://www.w3.org/2000/svg" xmlns:xlink="http://www.w3.org/1999/xlink" x="0px" y="0px"
	 viewBox="0 0 31 31" style="enable-background:new 0 0 31 31;" xml:space="preserve">
<style type="text/css">
	.st0{fill:#FEDA0F;stroke:#FEDA0F;stroke-width:0.5;stroke-miterlimit:10;}
</style>
<g>
	<g>
		<g>
			<path class="st0" d="M24.8,9.6c2.5,0,4.5-2,4.5-4.5s-2-4.5-4.5-4.5c-2.5,0-4.5,2-4.5,4.5c0,0,0,0,0,0l-6.1,1.2
				C13.5,3.6,11,1.6,8,1.6C4.5,1.6,1.6,4.5,1.6,8s2.9,6.4,6.4,6.4c1.2,0,2.2-0.3,3.2-0.8l2.5,3.5c-1.5,1.4-2.4,3.4-2.4,5.6
				c0,4.3,3.5,7.7,7.7,7.7s7.7-3.5,7.7-7.7c0-2.9-1.6-5.5-4-6.8L24.8,9.6C24.8,9.6,24.8,9.6,24.8,9.6z M24.8,1.6
				c1.9,0,3.5,1.6,3.5,3.5s-1.6,3.5-3.5,3.5S21.4,7,21.4,5.1S22.9,1.6,24.8,1.6z M8,13.3C5.1,13.3,2.7,11,2.7,8
				c0-2.9,2.4-5.3,5.3-5.3s5.3,2.4,5.3,5.3C13.4,11,11,13.3,8,13.3z M25.6,22.7c0,3.7-3,6.7-6.7,6.7s-6.7-3-6.7-6.7s3-6.7,6.7-6.7
				C22.6,16,25.6,19,25.6,22.7z M21.7,15.5c-0.9-0.3-1.8-0.5-2.7-0.5c-1.7,0-3.2,0.5-4.5,1.4L12.1,13c1.4-1.2,2.4-3,2.4-5
				c0-0.2,0-0.4,0-0.6l6-1.2c0.4,1.6,1.7,2.9,3.3,3.3L21.7,15.5z"/>
		</g>
	</g>
</g>
</svg>
