<?xml version="1.0" encoding="utf-8"?>
<!-- Generator: Adobe Illustrator 19.0.0, SVG Export Plug-In . SVG Version: 6.00 Build 0)  -->
<svg version="1.1" id="Слой_1" xmlns="http://www.w3.org/2000/svg" xmlns:xlink="http://www.w3.org/1999/xlink" x="0px" y="0px"
	 viewBox="0 0 31 31" style="enable-background:new 0 0 31 31;" xml:space="preserve">
<style type="text/css">
	.st0{fill:#FEDA0F;}
</style>
<g>
	<g>
		<path class="st0" d="M15.5,0C7,0,0,7,0,15.5C0,24,7,31,15.5,31C24,31,31,24,31,15.5C31,7,24,0,15.5,0z M15.5,29.3
			c-3.8,0-7.2-1.5-9.7-4c-1-1-1.8-2.1-2.5-3.4c-1-1.9-1.6-4.1-1.6-6.4c0-7.6,6.2-13.8,13.8-13.8c3.6,0,6.9,1.4,9.4,3.7
			C26.2,6.5,27.2,8,28,9.5c0.9,1.8,1.4,3.8,1.4,6C29.3,23.1,23.1,29.3,15.5,29.3z M10.2,12c0.9,0,1.6,0.7,1.6,1.6h1.7
			c0-1.9-1.5-3.3-3.3-3.3c-1.8,0-3.3,1.4-3.3,3.3h1.7C8.6,12.7,9.3,12,10.2,12z M20.8,10.3c-1.8,0-3.3,1.4-3.3,3.3h1.7
			c0-0.9,0.7-1.6,1.6-1.6s1.6,0.7,1.6,1.6h1.7C24.1,11.7,22.6,10.3,20.8,10.3z M14.6,22.4c-2.3-0.3-4.5-1.6-5.8-3.6l-1.4,0.9
			c1.5,2.4,4.2,4,7,4.3c0.4,0,0.7,0.1,1.1,0.1c3.2,0,6.3-1.7,8.1-4.4l-1.4-0.9C20.6,21.3,17.6,22.7,14.6,22.4z"/>
	</g>
</g>
</svg>
