<?xml version="1.0" encoding="utf-8"?>
<!-- Generator: Adobe Illustrator 19.2.1, SVG Export Plug-In . SVG Version: 6.00 Build 0)  -->
<svg version="1.1" id="Слой_1" xmlns="http://www.w3.org/2000/svg" xmlns:xlink="http://www.w3.org/1999/xlink" x="0px" y="0px"
	 viewBox="0 0 14 14.1" style="enable-background:new 0 0 14 14.1;" xml:space="preserve">
<path class="st0" d="M13.1,1c-1.3-1.3-3.4-1.3-4.7,0L6,3.3C5.8,3.5,5.8,3.9,6,4.1c0.2,0.2,0.5,0.2,0.7,0l2.3-2.4
	c0.4-0.4,1-0.7,1.6-0.7c0.6,0,1.2,0.2,1.6,0.7c0.4,0.4,0.7,1,0.7,1.6C13,4,12.8,4.5,12.3,5L9.3,8.1C8.4,9,6.9,9,6,8.1
	c-0.2-0.2-0.5-0.2-0.7,0c-0.2,0.2-0.2,0.5,0,0.7c0.6,0.7,1.5,1,2.3,1c0.8,0,1.7-0.3,2.3-1l3.1-3.1c0.6-0.6,1-1.5,1-2.4
	C14,2.4,13.7,1.6,13.1,1z"/>
<path class="st0" d="M6.9,10.4l-2,2c-0.4,0.4-1,0.7-1.6,0.7c-0.6,0-1.2-0.2-1.6-0.7c-0.9-0.9-0.9-2.4,0-3.3l2.9-2.9
	c0.4-0.4,1-0.7,1.6-0.7c0.6,0,1.2,0.2,1.6,0.7c0.2,0.2,0.5,0.2,0.7,0c0.2-0.2,0.2-0.5,0-0.7c-1.3-1.3-3.4-1.3-4.7,0L1,8.4
	c-0.6,0.6-1,1.5-1,2.4c0,0.9,0.3,1.7,1,2.4c0.6,0.6,1.5,1,2.3,1c0.9,0,1.7-0.3,2.3-1l2-2c0.2-0.2,0.2-0.5,0-0.7
	C7.4,10.2,7.1,10.2,6.9,10.4z"/>
</svg>
