<?xml version="1.0" encoding="utf-8"?>
<!-- Generator: Adobe Illustrator 19.2.1, SVG Export Plug-In . SVG Version: 6.00 Build 0)  -->
<svg version="1.1" id="Слой_1" xmlns="http://www.w3.org/2000/svg" xmlns:xlink="http://www.w3.org/1999/xlink" x="0px" y="0px"
	 viewBox="0 0 38 28.7" style="enable-background:new 0 0 38 28.7;" xml:space="preserve">
<path class="st0" d="M32.5,2.7C30.8,0.9,28.6,0,26.2,0c-2.4,0-4.6,0.9-6.3,2.7l-0.7,0.7l-0.7-0.7C16.8,0.9,14.5,0,12.2,0
	C9.8,0,7.5,0.9,5.8,2.7c-3.5,3.5-3.5,9.3,0,12.8l12.7,12.9c0.2,0.2,0.4,0.3,0.7,0.3s0.5-0.1,0.7-0.3l12.7-12.9
	c1.7-1.7,2.6-4,2.6-6.4C35.1,6.7,34.2,4.4,32.5,2.7z M31.2,14.2l-12,12.2l-12-12.2C4.4,11.4,4.4,6.8,7.2,4c1.3-1.4,3.1-2.1,5-2.1
	c1.9,0,3.7,0.7,5,2.1l1.4,1.4c0.4,0.4,1,0.4,1.3,0L21.2,4c1.3-1.4,3.1-2.1,5-2.1c1.9,0,3.7,0.7,5,2.1C33.9,6.8,33.9,11.4,31.2,14.2z
	"/>
<path class="st0" d="M4.4,12.1H0.9c-0.5,0-0.9,0.4-0.9,1c0,0.5,0.4,1,0.9,1h3.5c0.5,0,0.9-0.4,0.9-1C5.3,12.5,4.9,12.1,4.4,12.1z"/>
<path class="st0" d="M33.9,12.1h-9L23.5,9c-0.1-0.2-0.3-0.4-0.6-0.4c-0.3,0-0.5,0.2-0.6,0.4l-2.9,8.2L16,7.4C15.9,7.2,15.7,7,15.4,7
	c-0.3,0-0.5,0.1-0.6,0.4l-2.3,5.1H4.7c-0.3,0-0.6,0.3-0.6,0.6c0,0.4,0.4,0.6,0.8,0.6H13c0.2,0,0.3-0.1,0.4-0.3l1.9-4l3.6,10
	c0.1,0.3,0.3,0.4,0.6,0.4c0,0,0,0,0,0c0.3,0,0.5-0.2,0.6-0.4L23,11l0.9,2.1c0.1,0.2,0.5,0.3,0.7,0.3H34c0.3,0,0.5-0.3,0.5-0.6
	C34.5,12.4,34.2,12.1,33.9,12.1z"/>
<path class="st0" d="M37,11.8h-2.8c-0.5,0-0.9,0.4-0.9,1c0,0.5,0.4,1,0.9,1H37c0.5,0,0.9-0.4,0.9-1C38,12.2,37.5,11.8,37,11.8z"/>
</svg>
