<?xml version="1.0" encoding="utf-8"?>
<!-- Generator: Adobe Illustrator 19.2.1, SVG Export Plug-In . SVG Version: 6.00 Build 0)  -->
<svg version="1.1" id="Слой_1" xmlns="http://www.w3.org/2000/svg" xmlns:xlink="http://www.w3.org/1999/xlink" x="0px" y="0px"
	 viewBox="0 0 23 23" style="enable-background:new 0 0 23 23;" xml:space="preserve">
<path class="st0" d="M11.5,23C5.2,23,0,17.8,0,11.5C0,5.2,5.2,0,11.5,0C17.8,0,23,5.2,23,11.5C23,17.8,17.8,23,11.5,23z M11.5,1.1
	C5.8,1.1,1.1,5.8,1.1,11.5c0,5.7,4.6,10.4,10.4,10.4c5.7,0,10.3-4.6,10.3-10.4C21.9,5.8,17.2,1.1,11.5,1.1z"/>
<path class="st0" d="M11,6h1v8h-1V6z"/>
<path class="st0" d="M11,15h1v1h-1V15z"/>
</svg>
