<?xml version="1.0" encoding="utf-8"?>
<!-- Generator: Adobe Illustrator 19.2.1, SVG Export Plug-In . SVG Version: 6.00 Build 0)  -->
<svg version="1.1" id="Слой_1" xmlns="http://www.w3.org/2000/svg" xmlns:xlink="http://www.w3.org/1999/xlink" x="0px" y="0px"
	 viewBox="0 0 19.6 31.6" style="enable-background:new 0 0 19.6 31.6;" xml:space="preserve">
<path class="st0" d="M11.4,15.8C13.8,13.7,19.6,8,19.6,1c0-0.6-0.5-1-1-1c-0.6,0-1,0.5-1,1c0,6.3-5.9,11.8-7.8,13.4
	C7.9,12.8,2,7.4,2,1c0-0.6-0.5-1-1-1C0.4,0,0,0.5,0,1c0,7,5.8,12.7,8.2,14.8C5.8,17.9,0,23.6,0,30.6c0,0.6,0.5,1,1,1
	c0.6,0,1-0.5,1-1c0-6.3,5.9-11.8,7.8-13.4c1.9,1.6,7.8,7.1,7.8,13.4c0,0.6,0.5,1,1,1c0.6,0,1-0.5,1-1C19.6,23.6,13.8,17.9,11.4,15.8
	z"/>
<path class="st0" d="M4.7,2.4h10.2c0.6,0,1-0.5,1-1c0-0.6-0.5-1-1-1H4.7c-0.6,0-1,0.5-1,1C3.7,2,4.1,2.4,4.7,2.4z"/>
<path class="st0" d="M14.7,5.8c0-0.6-0.5-1-1-1H6c-0.6,0-1,0.5-1,1c0,0.6,0.5,1,1,1h7.7C14.2,6.8,14.7,6.4,14.7,5.8z"/>
<path class="st0" d="M8.4,8.7c-0.6,0-1,0.5-1,1c0,0.6,0.5,1,1,1h2.9c0.6,0,1-0.5,1-1c0-0.6-0.5-1-1-1H8.4z"/>
<path class="st0" d="M14.9,29.5H4.7c-0.6,0-1,0.5-1,1c0,0.6,0.5,1,1,1h10.2c0.6,0,1-0.5,1-1C16,29.9,15.5,29.5,14.9,29.5z"/>
<path class="st0" d="M4.9,26.1c0,0.6,0.5,1,1,1h7.7c0.6,0,1-0.5,1-1c0-0.6-0.5-1-1-1H6C5.4,25.1,4.9,25.5,4.9,26.1z"/>
<path class="st0" d="M11.3,23.2c0.6,0,1-0.5,1-1c0-0.6-0.5-1-1-1H8.4c-0.6,0-1,0.5-1,1c0,0.6,0.5,1,1,1H11.3z"/>
</svg>
