<?xml version="1.0" encoding="utf-8"?>
<!-- Generator: Adobe Illustrator 19.2.1, SVG Export Plug-In . SVG Version: 6.00 Build 0)  -->
<svg version="1.1" id="Слой_1" xmlns="http://www.w3.org/2000/svg" xmlns:xlink="http://www.w3.org/1999/xlink" x="0px" y="0px"
	 viewBox="0 0 37.3 43.5" style="enable-background:new 0 0 37.3 43.5;" xml:space="preserve">
<path class="st0" d="M7.8,34c2.2-0.1,3.6-0.9,4.2-2.2c0.2-0.6,0.3-1.2,0.2-1.8c0.5,0.3,1.2,0.5,1.8,0.5c0.1,0,0.3,0,0.4,0
	c0.7-0.1,1.3-0.5,1.7-1.1c0.2-0.3,0.1-0.7-0.2-0.9c-0.3-0.2-0.7-0.1-0.9,0.2c-0.2,0.3-0.5,0.5-0.8,0.6c-0.8,0.1-1.9-0.6-2.2-0.9
	c-0.1-0.1-0.2-0.1-0.4-0.1c-0.2-0.5-0.5-0.9-0.7-1.1c-2.5-2.8-2.6-5.2-2.6-5.2c0-0.4-0.3-0.6-0.6-0.6c-0.3,0-0.6,0.3-0.6,0.7
	c0,0.1,0.1,2.8,2.9,6c0.5,0.6,1.3,2.2,0.9,3.3c-0.4,1-1.9,1.3-3.1,1.4c-0.3,0-0.6,0.3-0.6,0.7C7.1,33.7,7.4,34,7.8,34L7.8,34z"/>
<path class="st0" d="M7.6,20.5c0,0,0.9-0.1,1.7,2c0.1,0.2,0.7,1.5,1.9,1.9c0.2,0,0.4,0.1,0.6,0.1c0.4,0,0.9-0.1,1.4-0.5
	c0.3-0.2,0.4-0.6,0.2-0.9c-0.2-0.3-0.6-0.4-0.9-0.2c-0.3,0.2-0.7,0.3-0.9,0.2C11,23,10.6,22.2,10.5,22c-1.4-3.3-3.1-2.8-3.3-2.7
	c-0.3,0.1-0.5,0.5-0.4,0.8C6.9,20.4,7.3,20.6,7.6,20.5z"/>
<path class="st0" d="M13.6,16.8c-0.1,0.3,0,0.7,0.3,0.8l0.2,0c0.2,0,0.5-0.1,0.6-0.4c1.8-4.4,0.2-10.7,0.2-10.9
	c-0.1-0.3-0.4-0.6-0.8-0.5c-0.3,0.1-0.5,0.4-0.4,0.8C13.7,6.7,15.3,12.7,13.6,16.8z"/>
<path class="st0" d="M13,33.6c-0.3-0.1-0.7,0.2-0.7,0.5c-0.1,0.4,0.2,0.7,0.5,0.7c0,0,2.4,0.4,3,2.8c0.1,0.3,0.3,0.5,0.6,0.5l0.2,0
	c0.3-0.1,0.5-0.4,0.4-0.8C16.2,34.2,13.1,33.6,13,33.6z"/>
<path class="st0" d="M14,39.2c-1.6,0.4-4.1-2.7-5.3-4.8c-0.2-0.3-0.6-0.4-0.9-0.2c-0.3,0.2-0.4,0.6-0.2,0.9c0.3,0.6,3.3,5.4,6.1,5.4
	c0.2,0,0.4,0,0.5-0.1c0.3-0.1,0.6-0.4,0.5-0.8C14.7,39.4,14.4,39.2,14,39.2z"/>
<path class="st0" d="M7.5,31.2c0.3,0,0.6-0.2,0.6-0.6c0-0.4-0.2-0.7-0.5-0.7c-1.4-0.2-2.1-2.7-2.2-3.7C5.6,21.7,4,20.1,4,20
	c-0.2-0.2-0.6-0.2-0.9,0c-0.2,0.2-0.3,0.6,0,0.9c0,0,1.3,1.4,1,5.3l0,0.1C4.1,26.5,4.7,30.8,7.5,31.2L7.5,31.2z"/>
<path class="st0" d="M10.2,19.7c-0.1,0.3,0,0.7,0.3,0.8l0.3,0.1c0.2,0,0.5-0.1,0.6-0.4c0.7-1.5,0-4.1-0.1-4.4l-0.1-0.2
	c-1.7-2.8,0.6-5.7,0.7-5.8C12,9.7,12,9.5,12,9.3c0.2,0.3,0.4,0.5,0.7,0.8c0.1,0.1,0.3,0.2,0.4,0.2c0.2,0,0.3-0.1,0.5-0.2
	c0.2-0.3,0.2-0.7,0-0.9c-1.1-1.1-1.7-2.1-1.6-2.9c0.1-1,1.3-1.6,1.3-1.7c0.3-0.2,0.4-0.5,0.3-0.9c-0.2-0.3-0.5-0.4-0.8-0.3
	c-0.1,0-1.7,0.9-2,2.6c-0.1,0.9,0.2,1.9,0.9,2.9c-0.3-0.1-0.6-0.1-0.8,0.2c-0.1,0.1-2.8,3.6-0.8,7.2C10.3,17,10.6,18.9,10.2,19.7z"
	/>
<path class="st0" d="M16.5,19.5c-0.2,0.8-2,0.8-2.8,0.7c-0.3,0-0.7,0.2-0.7,0.5c0,0.3,0.2,0.7,0.5,0.7c0.1,0,0.5,0.1,1,0.1
	c1.1,0,2.8-0.3,3.2-1.7c0.1-0.3-0.1-0.7-0.4-0.8C16.9,19,16.6,19.2,16.5,19.5z"/>
<path class="st0" d="M36.2,21.1c0.9-5.9-1.4-7.9-2.3-8.4c0.3-3.9-1.8-5.5-2.5-5.9c-0.1-0.7-0.3-1.4-0.6-2c-1.3-2.3-4.4-3.1-4.8-3.2
	c-1-1-2.1-1.6-3.2-1.6l-0.1,0c-1.9,0-3.4,1.6-4.1,2.6C18,1.6,16.5,0,14.6,0l-0.1,0c-1.1,0-2.2,0.5-3.2,1.6c-0.4,0.1-3.4,0.9-4.8,3.2
	C6.2,5.4,6,6.1,6,6.8c-0.7,0.4-2.8,2.1-2.5,5.9c-0.8,0.5-3.2,2.5-2.3,8.4c-0.2,0.4-1.7,3.4-0.9,6.2c0.2,0.7,0.5,1.2,0.9,1.8
	c-0.1,0.7-0.2,4.2,4.1,7.4c1.6,1.2,3.1,3,4.5,5.3L9.8,42c0.1,0.1,1.9,1.5,4,1.5c0.4,0,0.8-0.1,1.2-0.2c1.5-0.4,2.7-1.7,3.6-3.6
	c0.9,2,2.1,3.2,3.6,3.6c0.4,0.1,0.8,0.2,1.2,0.2c2.2,0,3.9-1.5,4-1.5l0.1-0.2c1.4-2.3,2.9-4.1,4.5-5.3c4.2-3.2,4.1-6.7,4.1-7.4
	c0.4-0.5,0.7-1.1,0.9-1.8C37.9,24.5,36.4,21.6,36.2,21.1z M17.9,38.1c-0.8,2.3-1.8,3.6-3.2,4c-1.8,0.5-3.7-0.8-4.1-1.1
	c-1.5-2.4-3.1-4.3-4.8-5.6c-2.5-1.9-3.3-3.9-3.5-5.1c0.2,0.1,0.4,0.3,0.6,0.4l0.3,0.1c0.2,0,0.4-0.1,0.6-0.3
	c0.2-0.3,0.1-0.7-0.2-0.9c-3.1-1.8-2.5-5-1.9-6.7L2,23l0.1,0c0.3-0.1,0.6-0.4,0.5-0.8c-1.2-5.2,0.2-7.3,1-8.1
	c0.2,0.7,0.4,1.5,0.7,2.4c0.1,0.3,0.3,0.4,0.6,0.4l0.2,0c0.3-0.1,0.5-0.5,0.4-0.8c-1.8-4.7-0.4-6.9,0.5-7.8c0.1,0.3,0.1,0.6,0.2,0.9
	c0.1,0.3,0.3,0.4,0.6,0.4l0.2,0c0.3-0.1,0.5-0.5,0.4-0.8C7.1,7.5,7.1,6.4,7.7,5.4c0.6-1,1.5-1.6,2.4-2c-0.1,0.3,0,0.5,0.3,0.7
	c0.3,0.2,0.7,0.1,0.9-0.2c1.1-1.7,2.2-2.6,3.3-2.6l0,0c1.7,0,3,1.9,3.4,2.4L17.9,38.1L17.9,38.1z M31.4,35.5
	c-1.7,1.3-3.3,3.2-4.8,5.6c-0.4,0.3-2.2,1.6-4,1.1c-1.3-0.4-2.4-1.7-3.2-4V3.7c0.5-0.8,1.9-2.4,3.4-2.4l0,0c1.1,0,2.3,0.9,3.3,2.6
	c0.2,0.3,0.6,0.4,0.9,0.2c0.2-0.1,0.3-0.4,0.3-0.7c0.9,0.4,1.8,1.1,2.4,2c0.5,0.9,0.6,2.1,0.2,3.4c-0.1,0.3,0.1,0.7,0.4,0.8l0.2,0
	c0.3,0,0.5-0.2,0.6-0.4c0.1-0.3,0.2-0.6,0.2-0.9c0.9,0.9,2.3,3,0.5,7.8c-0.1,0.3,0,0.7,0.4,0.8l0.2,0c0.3,0,0.5-0.2,0.6-0.4
	c0.3-0.9,0.6-1.7,0.7-2.4c0.8,0.8,2.2,2.9,1,8.1c-0.1,0.3,0.1,0.7,0.5,0.8l0.1,0l0.3-0.1c0.4,1.1,0.7,2.6,0.3,4
	c-0.3,1.1-1.1,2-2.2,2.7c-0.3,0.2-0.4,0.6-0.2,0.9c0.1,0.2,0.3,0.3,0.6,0.3l0.3-0.1c0.2-0.1,0.4-0.3,0.6-0.4
	C34.7,31.6,34,33.6,31.4,35.5z"/>
<path class="st0" d="M24,4.6c0,0,1.1,0.6,1.3,1.7c0.1,0.8-0.4,1.9-1.6,2.9c-0.3,0.2-0.3,0.6,0,0.9c0.1,0.1,0.3,0.2,0.5,0.2
	c0.2,0,0.3-0.1,0.4-0.2c0.3-0.3,0.5-0.5,0.7-0.8c0,0.2,0,0.4,0.1,0.5c0,0,2.3,3,0.7,5.8l-0.1,0.2c-0.1,0.3-0.8,2.9-0.1,4.4
	c0.1,0.2,0.3,0.4,0.6,0.4l0.3-0.1c0.3-0.1,0.5-0.5,0.3-0.8c-0.3-0.8-0.1-2.5,0.2-3.5c2-3.6-0.7-7-0.8-7.2c-0.2-0.2-0.5-0.3-0.8-0.2
	c0.7-1,1-1.9,0.9-2.9c-0.2-1.7-1.9-2.6-2-2.6c-0.3-0.2-0.7,0-0.8,0.3C23.6,4,23.7,4.4,24,4.6z"/>
<path class="st0" d="M29.6,32.7c-1.2-0.1-2.6-0.4-3.1-1.4c-0.5-1.1,0.3-2.7,0.9-3.3c2.9-3.2,2.9-5.9,2.9-6.1c0-0.4-0.3-0.6-0.6-0.7
	c-0.4,0-0.6,0.3-0.6,0.6c0,0-0.1,2.4-2.6,5.2c-0.2,0.2-0.5,0.7-0.7,1.1c-0.1,0-0.3,0-0.4,0.1c-0.3,0.3-1.4,1-2.2,0.9
	c-0.3-0.1-0.6-0.2-0.8-0.6c-0.2-0.3-0.6-0.4-0.9-0.2c-0.3,0.2-0.4,0.6-0.2,0.9c0.4,0.6,1,1,1.7,1.1c0.1,0,0.3,0,0.4,0
	c0.7,0,1.3-0.3,1.8-0.5c-0.1,0.6,0,1.2,0.2,1.8c0.5,1.3,1.9,2.1,4.2,2.2l0,0c0.3,0,0.6-0.3,0.6-0.6C30.2,33,30,32.7,29.6,32.7z"/>
<path class="st0" d="M25.8,23.1c-0.3,0.1-0.6,0-0.9-0.2c-0.3-0.2-0.7-0.1-0.9,0.2c-0.2,0.3-0.1,0.7,0.2,0.9c0.5,0.4,1,0.5,1.4,0.5
	c0.2,0,0.4,0,0.6-0.1c1.2-0.4,1.8-1.7,1.9-1.9c0.9-2.1,1.7-2,1.7-2c0.3,0.1,0.7-0.1,0.8-0.4c0.1-0.3-0.1-0.7-0.4-0.8
	c-0.2-0.1-1.9-0.5-3.3,2.7C26.7,22.2,26.3,23,25.8,23.1z"/>
<path class="st0" d="M23.2,17.7l0.2,0c0.3-0.1,0.5-0.5,0.3-0.8c-1.7-4-0.1-10.1-0.1-10.1c0.1-0.3-0.1-0.7-0.5-0.8
	c-0.3-0.1-0.7,0.1-0.8,0.5c-0.1,0.3-1.6,6.5,0.2,10.9C22.7,17.5,22.9,17.7,23.2,17.7z"/>
<path class="st0" d="M24.6,34.9c0.3-0.1,0.6-0.4,0.5-0.7c-0.1-0.3-0.4-0.6-0.7-0.5c-0.1,0-3.2,0.5-4,3.7c-0.1,0.3,0.1,0.7,0.4,0.8
	l0.2,0c0.3,0,0.5-0.2,0.6-0.5C22.2,35.3,24.5,34.9,24.6,34.9z"/>
<path class="st0" d="M29.5,34.3c-0.3-0.2-0.7-0.1-0.9,0.2c-1.2,2-3.7,5.1-5.3,4.8c-0.3-0.1-0.7,0.1-0.8,0.5
	c-0.1,0.3,0.1,0.7,0.5,0.8c0.2,0,0.4,0.1,0.5,0.1c2.8,0,5.8-4.8,6.1-5.4C29.9,34.9,29.8,34.5,29.5,34.3z"/>
<path class="st0" d="M34.3,20.9c0.2-0.3,0.2-0.7,0-0.9c-0.2-0.2-0.6-0.2-0.9,0c-0.1,0.1-1.6,1.7-1.4,6.2c-0.2,1-0.9,3.5-2.2,3.7
	c-0.3,0-0.6,0.4-0.5,0.7c0,0.3,0.3,0.6,0.6,0.6l0.1,0c2.6-0.4,3.3-4.7,3.3-4.8l0-0.1C33,22.3,34.3,20.9,34.3,20.9z"/>
<path class="st0" d="M23.8,21.5c0.3,0,0.6-0.4,0.5-0.7c-0.1-0.4-0.4-0.6-0.7-0.5c-0.5,0.1-2.6,0.2-2.8-0.7c-0.1-0.3-0.4-0.5-0.8-0.4
	c-0.3,0.1-0.5,0.4-0.4,0.8c0.4,1.5,2.1,1.7,3.2,1.7C23.3,21.6,23.7,21.5,23.8,21.5z"/>
</svg>
