<?xml version="1.0" encoding="utf-8"?>
<!-- Generator: Adobe Illustrator 19.2.1, SVG Export Plug-In . SVG Version: 6.00 Build 0)  -->
<svg version="1.1" id="Слой_1" xmlns="http://www.w3.org/2000/svg" xmlns:xlink="http://www.w3.org/1999/xlink" x="0px" y="0px"
	 viewBox="0 0 38.9 49.6" style="enable-background:new 0 0 38.9 49.6;" xml:space="preserve">
<path class="st0" d="M38.4,28.4c-0.4,0.5-1,0.7-1.8,0.8c0,0.1,0,0.2,0,0.3l0,1.8c0,0.2-0.1,0.8-0.8,1.3c0.1,0.4,0.2,1.2-0.5,2.2
	c-0.4,0.5-0.5,0.7-0.4,1.3c0.1,0.7,0.4,2.7-0.7,3.4c-0.4,0.4-1.7,1.3-5.2,0.8l-0.5-0.1c-1.6-0.2-3-0.3-3.9,0.8
	c-1.2,2.4-3.3,6.7-3.5,7.8c-0.1,0.4-0.4,0.7-0.8,0.7c0,0-0.1,0-0.1,0c-0.4-0.1-0.7-0.5-0.7-0.9c0.3-1.6,3.4-7.7,3.8-8.4
	c1.6-2.1,4-1.7,5.4-1.5l0.5,0.1c3.1,0.4,4-0.4,4-0.4c0.1-0.1,0.1-0.1,0.2-0.1c0.2-0.2,0.2-1,0.1-1.8c-0.4-1.3,0.2-2.1,0.6-2.6
	c0.5-0.6,0.4-0.9,0.4-0.9c-0.4-0.5-0.3-1.2,0-1.5c0.1-0.1,0.2-0.2,0.3-0.2c0.2-0.1,0.4-0.2,0.4-0.2l0-1.5c-0.1-0.6,0-1.2,0.3-1.6
	c0.3-0.4,0.6-0.4,0.8-0.5c1,0,1.3-0.3,1.3-0.6c-0.1-0.5-1.2-2.9-2.3-4.8c-1-1.9-0.3-3.4,0.2-4.4c0.2-0.3,0.3-0.7,0.3-0.9
	c0.5-5.5-1.6-8.6-3.5-10.6c-3.8-4-8.5-4.9-12-4.8C11.4,1.7,8.2,4.5,5.8,7.2c-5.2,5.9-4.2,11-4.2,11c0.1,2.6,3.2,7.3,4.4,8.8
	c3.8,5.5,2,9.7,1.9,9.9c-0.2,0.4-0.7,0.6-1.1,0.4c-0.4-0.2-0.6-0.7-0.4-1.1C6.6,36.2,8,32.7,4.8,28c-0.2-0.2-4.6-6.1-4.7-9.6
	c0-0.1-1.2-5.8,4.5-12.3C7.4,3,11.2,0.1,20.1,0c3.8,0,9,0.9,13.1,5.3c2.1,2.3,4.5,5.7,3.9,11.9c0,0.5-0.3,1-0.5,1.4
	c-0.4,0.9-0.8,1.7-0.2,2.9c1.7,3.1,2.6,5,2.5,5.6C38.9,27.2,38.9,27.9,38.4,28.4z M19.6,21.6l-3.2,2.6c-0.3,0.2-0.6,0.4-1,0.4
	c-0.5,0-0.9-0.2-1.2-0.6l-1.9-2.4L10,23.5c-0.3,0.2-0.6,0.4-1,0.4c-0.5,0-0.9-0.2-1.2-0.6l-2.6-3.2c-0.3-0.3-0.4-0.7-0.3-1.2
	c0-0.4,0.2-0.8,0.6-1.1L7.8,16l-1.9-2.4c-0.3-0.3-0.4-0.7-0.3-1.2c0-0.4,0.2-0.8,0.6-1.1l3.2-2.6c0.3-0.3,0.7-0.4,1.1-0.4
	c0.4,0,0.8,0.2,1,0.6l1.9,2.4l2.3-1.9c0.6-0.5,1.7-0.4,2.2,0.2l2.6,3.2c0.3,0.3,0.4,0.7,0.3,1.2c0,0.4-0.2,0.8-0.6,1.1L17.9,17
	l1.9,2.4C20.4,20,20.3,21,19.6,21.6z M9,14.9l3.1-2.6L10.2,10l-3.1,2.6L9,14.9z M19.2,13.8l-2.6-3.2L6.5,19.1L9,22.3L19.2,13.8z
	 M18.6,20.3L16.7,18l-3.1,2.6l1.9,2.4L18.6,20.3z"/>
</svg>
