<?xml version="1.0" encoding="utf-8"?>
<!-- Generator: Adobe Illustrator 19.0.0, SVG Export Plug-In . SVG Version: 6.00 Build 0)  -->
<svg version="1.1" id="Слой_1" xmlns="http://www.w3.org/2000/svg" xmlns:xlink="http://www.w3.org/1999/xlink" x="0px" y="0px"
	 viewBox="-286 375.5 37.3 43.5" style="enable-background:new -286 375.5 37.3 43.5;" xml:space="preserve">
<style type="text/css">
	.st0{fill:#2F8CC9;}
</style>
<g>
	<g>
		<path class="st0" d="M-278.2,409.5c2.2-0.1,3.6-0.9,4.2-2.2c0.2-0.6,0.3-1.2,0.2-1.8c0.5,0.3,1.2,0.5,1.8,0.5c0.1,0,0.3,0,0.4,0
			c0.7-0.1,1.3-0.5,1.7-1.1c0.2-0.3,0.1-0.7-0.2-0.9c-0.3-0.2-0.7-0.1-0.9,0.2c-0.2,0.3-0.5,0.5-0.8,0.6c-0.8,0.1-1.9-0.6-2.2-0.9
			c-0.1-0.1-0.2-0.1-0.4-0.1c-0.2-0.5-0.5-0.9-0.7-1.1c-2.5-2.8-2.6-5.2-2.6-5.2c0-0.4-0.3-0.6-0.6-0.6c-0.3,0-0.6,0.3-0.6,0.7
			c0,0.1,0.1,2.8,2.9,6c0.5,0.6,1.3,2.2,0.9,3.3c-0.4,1-1.9,1.3-3.1,1.4c-0.3,0-0.6,0.3-0.6,0.7
			C-278.9,409.2-278.6,409.5-278.2,409.5L-278.2,409.5z M-273,409.1c-0.3-0.1-0.7,0.2-0.7,0.5c-0.1,0.4,0.2,0.7,0.5,0.7
			c0,0,2.4,0.4,3,2.8c0.1,0.3,0.3,0.5,0.6,0.5h0.2c0.3-0.1,0.5-0.4,0.4-0.8C-269.8,409.7-272.9,409.1-273,409.1z M-272,414.7
			c-1.6,0.4-4.1-2.7-5.3-4.8c-0.2-0.3-0.6-0.4-0.9-0.2c-0.3,0.2-0.4,0.6-0.2,0.9c0.3,0.6,3.3,5.4,6.1,5.4c0.2,0,0.4,0,0.5-0.1
			c0.3-0.1,0.6-0.4,0.5-0.8C-271.3,414.9-271.6,414.7-272,414.7z M-275.8,395.2c-0.1,0.3,0,0.7,0.3,0.8l0.3,0.1
			c0.2,0,0.5-0.1,0.6-0.4c0.7-1.5,0-4.1-0.1-4.4l-0.1-0.2c-1.7-2.8,0.6-5.7,0.7-5.8c0.1-0.1,0.1-0.3,0.1-0.5
			c0.2,0.3,0.4,0.5,0.7,0.8c0.1,0.1,0.3,0.2,0.4,0.2c0.2,0,0.3-0.1,0.5-0.2c0.2-0.3,0.2-0.7,0-0.9c-1.1-1.1-1.7-2.1-1.6-2.9
			c0.1-1,1.3-1.6,1.3-1.7c0.3-0.2,0.4-0.5,0.3-0.9c-0.2-0.3-0.5-0.4-0.8-0.3c-0.1,0-1.7,0.9-2,2.6c-0.1,0.9,0.2,1.9,0.9,2.9
			c-0.3-0.1-0.6-0.1-0.8,0.2c-0.1,0.1-2.8,3.6-0.8,7.2C-275.7,392.5-275.4,394.4-275.8,395.2z M-268.7,394.6
			c-0.3-0.1-0.7,0.1-0.8,0.4c-0.2,0.8-2,0.8-2.8,0.7c-0.3,0-0.7,0.2-0.7,0.5c0,0.4,0.2,0.7,0.5,0.7c0.1,0,0.5,0.1,1,0.1
			c1.1,0,2.8-0.3,3.2-1.7C-268.2,395-268.4,394.7-268.7,394.6z M-249.8,396.6c0.9-5.9-1.4-7.9-2.3-8.4c0.3-3.9-1.8-5.5-2.5-5.9
			c-0.1-0.7-0.3-1.4-0.6-2c-1.3-2.3-4.4-3.1-4.8-3.2c-1-1-2.1-1.6-3.2-1.6h-0.1c-1.9,0-3.4,1.6-4.1,2.6c-0.6-1-2.1-2.6-4-2.6h-0.1
			c-1.1,0-2.2,0.5-3.2,1.6c-0.4,0.1-3.4,0.9-4.8,3.2c-0.3,0.6-0.5,1.3-0.5,2c-0.7,0.4-2.8,2.1-2.5,5.9c-0.8,0.5-3.2,2.5-2.3,8.4
			c-0.2,0.4-1.7,3.4-0.9,6.2c0.2,0.7,0.5,1.2,0.9,1.8c-0.1,0.7-0.2,4.2,4.1,7.4c1.6,1.2,3.1,3,4.5,5.3v0.2c0.1,0.1,1.9,1.5,4,1.5
			c0.4,0,0.8-0.1,1.2-0.2c1.5-0.4,2.7-1.7,3.6-3.6c0.9,2,2.1,3.2,3.6,3.6c0.4,0.1,0.8,0.2,1.2,0.2c2.2,0,3.9-1.5,4-1.5l0.1-0.2
			c1.4-2.3,2.9-4.1,4.5-5.3c4.2-3.2,4.1-6.7,4.1-7.4c0.4-0.5,0.7-1.1,0.9-1.8C-248.1,400-249.6,397.1-249.8,396.6z M-271.2,417.6
			c-1.8,0.5-3.7-0.8-4.1-1.1c-1.5-2.4-3.1-4.3-4.8-5.6c-2.5-1.9-3.3-3.9-3.5-5.1c0.2,0.1,0.4,0.3,0.6,0.4l0.3,0.1
			c0.2,0,0.4-0.1,0.6-0.3c0.2-0.3,0.1-0.7-0.2-0.9c-3.1-1.8-2.5-5-1.9-6.7l0.2,0.1h0.1c0.3-0.1,0.6-0.4,0.5-0.8
			c-1.2-5.2,0.2-7.3,1-8.1c0.2,0.7,0.4,1.5,0.7,2.4c0.1,0.3,0.3,0.4,0.6,0.4h0.2c0.3-0.1,0.5-0.5,0.4-0.8c-1.8-4.7-0.4-6.9,0.5-7.8
			c0.1,0.3,0.1,0.6,0.2,0.9c0.1,0.3,0.3,0.4,0.6,0.4h0.2c0.3-0.1,0.5-0.5,0.4-0.8c-0.3-1.3-0.3-2.4,0.3-3.4c0.6-1,1.5-1.6,2.4-2
			c-0.1,0.3,0,0.5,0.3,0.7c0.3,0.2,0.7,0.1,0.9-0.2c1.1-1.7,2.2-2.6,3.3-2.6l0,0c1.7,0,3,1.9,3.4,2.4v34.4
			C-268.8,415.9-269.9,417.2-271.2,417.6z M-250.1,402.5c-0.3,1.1-1.1,2-2.2,2.7c-0.3,0.2-0.4,0.6-0.2,0.9c0.1,0.2,0.3,0.3,0.6,0.3
			l0.3-0.1c0.2-0.1,0.4-0.3,0.6-0.4c-0.2,1.2-1,3.2-3.5,5.1c-1.7,1.3-3.3,3.2-4.8,5.6c-0.4,0.3-2.2,1.6-4,1.1
			c-1.3-0.4-2.4-1.7-3.2-4v-34.5c0.5-0.8,1.9-2.4,3.4-2.4l0,0c1.1,0,2.3,0.9,3.3,2.6c0.2,0.3,0.6,0.4,0.9,0.2
			c0.2-0.1,0.3-0.4,0.3-0.7c0.9,0.4,1.8,1,2.4,2c0.5,0.9,0.6,2.1,0.2,3.4c-0.1,0.3,0.1,0.7,0.4,0.8h0.2c0.3,0,0.5-0.2,0.6-0.4
			c0.1-0.3,0.2-0.6,0.2-0.9c0.9,0.9,2.3,3,0.5,7.8c-0.1,0.3,0,0.7,0.4,0.8h0.2c0.3,0,0.5-0.2,0.6-0.4c0.3-0.9,0.6-1.7,0.7-2.4
			c0.8,0.8,2.2,2.9,1,8.1c-0.1,0.3,0.1,0.7,0.5,0.8h0.1l0.3-0.1C-250.1,399.5-249.7,401-250.1,402.5z M-262.2,384.7
			c-0.3,0.2-0.3,0.6,0,0.9c0.1,0.1,0.3,0.2,0.5,0.2c0.2,0,0.3-0.1,0.4-0.2c0.3-0.3,0.5-0.5,0.7-0.8c0,0.2,0,0.4,0.1,0.5
			c0,0,2.3,3,0.7,5.8l-0.1,0.2c-0.1,0.3-0.8,2.9-0.1,4.4c0.1,0.2,0.3,0.4,0.6,0.4l0.3-0.1c0.3-0.1,0.5-0.5,0.3-0.8
			c-0.3-0.8-0.1-2.5,0.2-3.5c2-3.6-0.7-7-0.8-7.2c-0.2-0.2-0.5-0.3-0.8-0.2c0.7-1,1-1.9,0.9-2.9c-0.2-1.7-1.9-2.6-2-2.6
			c-0.3-0.2-0.7,0-0.8,0.3c-0.2,0.3,0,0.7,0.3,0.9c0,0,1.1,0.6,1.3,1.7C-260.5,382.6-261.1,383.6-262.2,384.7z M-255.6,397.4
			c0-0.4-0.3-0.6-0.6-0.6c-0.4,0-0.6,0.3-0.6,0.6c0,0-0.1,2.4-2.6,5.2c-0.2,0.2-0.5,0.7-0.7,1.1c-0.1,0-0.3,0-0.4,0.1
			c-0.3,0.3-1.4,1-2.2,0.9c-0.3-0.1-0.6-0.2-0.8-0.6c-0.2-0.3-0.6-0.4-0.9-0.2c-0.3,0.2-0.4,0.6-0.2,0.9c0.4,0.6,1,1,1.7,1.1
			c0.1,0,0.3,0,0.4,0c0.7,0,1.3-0.3,1.8-0.5c-0.1,0.6,0,1.2,0.2,1.8c0.5,1.3,1.9,2.1,4.2,2.2l0,0c0.3,0,0.6-0.3,0.6-0.6
			c0-0.3-0.3-0.6-0.6-0.7c-1.2-0.1-2.6-0.4-3.1-1.4c-0.5-1.1,0.3-2.7,0.9-3.3C-255.7,400.3-255.6,397.6-255.6,397.4z M-261.4,410.4
			c0.3-0.1,0.6-0.4,0.5-0.7c-0.1-0.4-0.4-0.6-0.7-0.5c-0.1,0-3.2,0.5-4,3.7c-0.1,0.3,0.1,0.7,0.4,0.8h0.2c0.3,0,0.5-0.2,0.6-0.5
			C-263.8,410.8-261.5,410.4-261.4,410.4z M-256.5,409.8c-0.3-0.2-0.7-0.1-0.9,0.2c-1.2,2-3.7,5.1-5.3,4.8c-0.3-0.1-0.7,0.1-0.8,0.5
			c-0.1,0.3,0.1,0.7,0.5,0.8c0.2,0,0.4,0.1,0.5,0.1c2.8,0,5.8-4.8,6.1-5.4C-256.1,410.4-256.2,410-256.5,409.8z M-262.2,397
			c0.3-0.1,0.6-0.4,0.5-0.7c-0.1-0.4-0.4-0.6-0.7-0.5c-0.5,0.1-2.6,0.2-2.8-0.7c-0.1-0.3-0.4-0.5-0.8-0.4c-0.3,0.1-0.5,0.4-0.4,0.8
			c0.4,1.5,2.1,1.7,3.2,1.7C-262.7,397.1-262.3,397-262.2,397z"/>
	</g>
</g>
</svg>
