<?xml version="1.0" encoding="utf-8"?>
<!-- Generator: Adobe Illustrator 19.0.0, SVG Export Plug-In . SVG Version: 6.00 Build 0)  -->
<svg version="1.1" id="Слой_1" xmlns="http://www.w3.org/2000/svg" xmlns:xlink="http://www.w3.org/1999/xlink" x="0px" y="0px"
	 viewBox="0 0 46.2 28.7" style="enable-background:new 0 0 46.2 28.7;" xml:space="preserve">
<style type="text/css">
	.st0{fill:#6BCDF5;}
</style>
<g>
	<g>
		<g>
			<path class="st0" d="M21.7,7.7C21.7,7.7,21.7,7.7,21.7,7.7c-0.3-1.6-4.6-1.7-6-1.7c-1.6,0-3.1,0.1-4.2,0.4
				c-0.3,0.1-0.5,0.4-0.4,0.7c0.1,0.3,0.4,0.5,0.7,0.4c1-0.2,2.4-0.4,3.9-0.4c2.4,0,4,0.3,4.6,0.6c-0.6,0.3-2.2,0.6-4.6,0.6
				c-0.7,0-1.4,0-2.1-0.1c-0.3,0-0.6,0.2-0.7,0.5c0,0.3,0.2,0.6,0.5,0.7c0.7,0.1,1.4,0.1,2.2,0.1c0.9,0,3.1-0.1,4.6-0.5l-1,6
				c-0.1,0.3,0.2,0.6,0.5,0.7c0,0,0.1,0,0.1,0c0.3,0,0.5-0.2,0.6-0.5l1.2-7.4c0,0,0,0,0,0C21.7,7.9,21.7,7.8,21.7,7.7
				C21.7,7.8,21.7,7.8,21.7,7.7z"/>
			<path class="st0" d="M15.1,0C7.5,0,1.3,6.2,1.3,13.8s6.2,13.8,13.8,13.8s13.8-6.2,13.8-13.8S22.7,0,15.1,0z M15.1,26.5
				c-7,0-12.6-5.7-12.6-12.6c0-3.3,1.3-6.2,3.3-8.5L10,9.6l1.5,9.2l0.6,3.6c0,0.3,0.3,0.5,0.6,0.5h6c0.3,0,0.5-0.2,0.6-0.5l0.5-3
				l3.8,3.8C21.3,25.2,18.4,26.5,15.1,26.5z M11.4,11l7,7h-5.9L11.4,11z M24.4,22.3l-4.6-4.6l-8.9-8.9L6.6,4.5
				c2.2-2,5.2-3.3,8.5-3.3c7,0,12.6,5.7,12.6,12.6C27.7,17.1,26.5,20.1,24.4,22.3z"/>
		</g>
	</g>
</g>
</svg>
