<?xml version="1.0" encoding="utf-8"?>
<!-- Generator: Adobe Illustrator 19.0.0, SVG Export Plug-In . SVG Version: 6.00 Build 0)  -->
<svg version="1.1" id="Слой_1" xmlns="http://www.w3.org/2000/svg" xmlns:xlink="http://www.w3.org/1999/xlink" x="0px" y="0px"
	 viewBox="-291 379 28 36" style="enable-background:new -291 379 28 36;" xml:space="preserve">
<style type="text/css">
	.st0{fill:#E89ED7;}
</style>
<g>
	<g>
		<path class="st0" d="M-268.6,392.2c0,2.5-0.9,4.4-2.6,5.8c-1.7,1.3-4.1,2-7.2,2h-4v10.7h-1.8v-26h6.4
			C-271.7,384.8-268.6,387.2-268.6,392.2z M-282.4,398.4h3.6c2.9,0,5-0.5,6.3-1.4c1.3-1,2-2.5,2-4.7c0-2-0.6-3.5-1.8-4.4
			c-1.2-1-3.1-1.4-5.7-1.4h-4.3V398.4z"/>
	</g>
	<rect x="-286.2" y="402.4" class="st0" width="13.3" height="1.5"/>
</g>
</svg>
