<?xml version="1.0" encoding="utf-8"?>
<!-- Generator: Adobe Illustrator 19.0.0, SVG Export Plug-In . SVG Version: 6.00 Build 0)  -->
<svg version="1.1" id="Слой_1" xmlns="http://www.w3.org/2000/svg" xmlns:xlink="http://www.w3.org/1999/xlink" x="0px" y="0px"
	 viewBox="-290 381 31 31" style="enable-background:new -290 381 31 31;" xml:space="preserve">
<style type="text/css">
	.st0{fill:#E89ED7;stroke:#E89ED7;stroke-width:0.5;stroke-miterlimit:10;}
</style>
<g>
	<g>
		<g>
			<path class="st0" d="M-265.2,390.6c2.5,0,4.5-2,4.5-4.5s-2-4.5-4.5-4.5s-4.5,2-4.5,4.5l0,0l-6.1,1.2c-0.7-2.7-3.2-4.7-6.2-4.7
				c-3.5,0-6.4,2.9-6.4,6.4s2.9,6.4,6.4,6.4c1.2,0,2.2-0.3,3.2-0.8l2.5,3.5c-1.5,1.4-2.4,3.4-2.4,5.6c0,4.3,3.5,7.7,7.7,7.7
				s7.7-3.5,7.7-7.7c0-2.9-1.6-5.5-4-6.8L-265.2,390.6L-265.2,390.6z M-265.2,382.6c1.9,0,3.5,1.6,3.5,3.5s-1.6,3.5-3.5,3.5
				c-1.9,0-3.4-1.6-3.4-3.5S-267.1,382.6-265.2,382.6z M-282,394.3c-2.9,0-5.3-2.3-5.3-5.3c0-2.9,2.4-5.3,5.3-5.3s5.3,2.4,5.3,5.3
				C-276.6,392-279,394.3-282,394.3z M-264.4,403.7c0,3.7-3,6.7-6.7,6.7c-3.7,0-6.7-3-6.7-6.7c0-3.7,3-6.7,6.7-6.7
				C-267.4,397-264.4,400-264.4,403.7z M-268.3,396.5c-0.9-0.3-1.8-0.5-2.7-0.5c-1.7,0-3.2,0.5-4.5,1.4l-2.4-3.4
				c1.4-1.2,2.4-3,2.4-5c0-0.2,0-0.4,0-0.6l6-1.2c0.4,1.6,1.7,2.9,3.3,3.3L-268.3,396.5z"/>
		</g>
	</g>
</g>
</svg>
