<?xml version="1.0" encoding="utf-8"?>
<!-- Generator: Adobe Illustrator 19.0.0, SVG Export Plug-In . SVG Version: 6.00 Build 0)  -->
<svg version="1.1" id="Слой_1" xmlns="http://www.w3.org/2000/svg" xmlns:xlink="http://www.w3.org/1999/xlink" x="0px" y="0px"
	 viewBox="-291 379 28 36" style="enable-background:new -291 379 28 36;" xml:space="preserve">
<style type="text/css">
	.st0{fill:#FEDA0F;}
</style>
<g>
	<path class="st0" d="M-271.3,398.8c-0.1-1.4-0.5-2.8-1-4.1l-0.6-1.4c-0.8-1.9-1.3-4-1.4-6l-0.3-3.5l0.3-0.9c0-0.1,0.1-0.3,0-0.4
		l-0.3-2.7c-0.1-0.5-0.4-0.8-0.9-0.8h-3c-0.5,0-0.9,0.3-0.9,0.8l-0.3,2.7c0,0.1,0,0.3,0,0.4l0.3,0.9l-0.3,3.5
		c-0.2,2.1-0.6,4.1-1.4,6l-0.6,1.4c-0.5,1.3-0.9,2.7-1,4.1c0,0.4-0.1,0.8-0.1,1.2v12.6c0,1.4,1.1,2.5,2.5,2.5h6.4
		c1.4,0,2.5-1.1,2.5-2.5V400C-271.2,399.6-271.3,399.1-271.3,398.8z M-273.1,412.5c0,0.3-0.3,0.6-0.7,0.6h-6.4
		c-0.4,0-0.7-0.3-0.7-0.6V400c0-0.4,0-0.7,0-1.1c0.1-1.2,0.4-2.4,0.9-3.6l0.6-1.4c0.8-2.1,1.4-4.3,1.5-6.6l0.3-3.6
		c0-0.1,0-0.2,0-0.4l-0.3-0.8l0.2-1.7h1.4l0.2,1.7l-0.3,0.8c0,0.1-0.1,0.2,0,0.4l0.3,3.6c0.2,2.3,0.7,4.5,1.5,6.6l0.6,1.4
		c0.5,1.1,0.7,2.3,0.9,3.6c0,0.4,0,0.7,0,1.1V412.5L-273.1,412.5z"/>
</g>
</svg>
