<?xml version="1.0" encoding="utf-8"?>
<!-- Generator: Adobe Illustrator 19.0.0, SVG Export Plug-In . SVG Version: 6.00 Build 0)  -->
<svg version="1.1" id="Layer_1" xmlns="http://www.w3.org/2000/svg" xmlns:xlink="http://www.w3.org/1999/xlink" x="0px" y="0px"
	 viewBox="-272 376 67 41" style="enable-background:new -272 376 67 41;" xml:space="preserve">
<style type="text/css">
	.st0{fill:#6BCDF5;}
</style>
<g>
	<g>
		<path class="st0" d="M-224,398.7c0.1-0.5-0.5-1.9-1.8-4.1c-0.4-0.9-0.2-1.5,0.1-2.1c0.2-0.3,0.3-0.7,0.4-1c0.4-4.5-1.3-7-2.8-8.6
			c-3-3.2-6.8-3.9-9.5-3.9c-6.4,0-9.1,2.2-11.1,4.4c-4.1,4.7-3.3,8.8-3.3,8.9c0.1,2.5,3.3,6.8,3.4,7c2.3,3.4,1.3,5.9,1.2,6
			c-0.1,0.3,0,0.6,0.3,0.8c0.3,0.1,1.1,0,1.3-0.3c0.1-0.1,2-3-1.5-7.3c-0.9-1.2-2.9-4.7-2.9-6.6c0,0-0.8-3.6,2.9-7.8
			c1.7-1.9,4.1-3.8,9.7-3.8c2.5,0,5.6,0.5,8.3,3.5c1.4,1.5,3,3.9,2.6,8c0,0.2-0.1,0.4-0.2,0.6c-0.3,0.7-0.8,1.8-0.1,3.2
			c0.8,1.4,1.5,2.8,1.6,3.2c0,0.2-0.2,0.4-0.9,0.4c-0.1,0-0.3,0.1-0.5,0.3c-0.2,0.3-0.3,0.7-0.2,1.1v1.1c0,0-0.1,0.1-0.3,0.2
			c-0.1,0-0.2,0.1-0.2,0.1c-0.2,0.2-0.3,0.7,0,1.1c0,0,0,0.2-0.3,0.6c-0.2,0.3-0.7,0.9-0.4,1.9c0.1,0.5-0.1,1-0.2,1.1
			c-0.1,0-0.1,0-0.1,0.1c0,0-0.2,0.3-2.4,0.1l-0.3-0.1c-1-0.2-3.2-0.3-4.4,1.2c-0.3,0.5-2.5,4.7-2.7,5.9c-0.1,0.3,0.7,0.9,1,0.9h0.1
			c0.3,0,0.5-0.2,0.6-0.5c0.1-0.8,1.7-3.9,2.5-5.6c0.6-0.8,1.7-0.8,2.8-0.6l0.4,0.1c2.5,0.3,3.5-0.3,3.8-0.6c0.8-0.6,0.6-2,0.5-2.5
			c-0.1-0.4,0-0.6,0.3-1c0.5-0.7,0.5-1.3,0.4-1.6c0.5-0.3,0.6-0.7,0.6-0.9v-1.3c0-0.1,0-0.2,0-0.2c0.6-0.1,1-0.3,1.3-0.6
			C-224,399.2-224,398.7-224,398.7z M-237.5,391.3l-0.6-0.9c0.2-0.3,0.3-0.6,0.4-0.9l1.1-0.2v-1l-1.1-0.2c-0.1-0.3-0.2-0.6-0.4-0.9
			l0.6-0.9l-0.7-0.7l-0.9,0.6c-0.3-0.2-0.6-0.3-0.9-0.4l-0.2-1.1h-1l-0.2,1.1c-0.3,0.1-0.6,0.2-0.9,0.4l-0.9-0.6l-0.7,0.7l0.6,0.9
			c-0.2,0.3-0.3,0.6-0.4,0.9l-1.1,0.2v1l1.1,0.2c0.1,0.3,0.2,0.6,0.4,0.9l-0.6,0.9l0.7,0.7l0.9-0.6c0.3,0.2,0.6,0.3,0.9,0.4l0.2,1.1
			h1l0.2-1.1c0.3-0.1,0.6-0.2,0.9-0.4l0.9,0.6L-237.5,391.3z M-240.7,390.8c-1.1,0-2-0.9-2-2c0-1.1,0.9-2,2-2c1.1,0,2,0.9,2,2
			C-238.7,389.9-239.6,390.8-240.7,390.8z"/>
	</g>
</g>
</svg>
