<?xml version="1.0" encoding="utf-8"?>
<!-- Generator: Adobe Illustrator 19.0.0, SVG Export Plug-In . SVG Version: 6.00 Build 0)  -->
<svg version="1.1" id="Слой_1" xmlns="http://www.w3.org/2000/svg" xmlns:xlink="http://www.w3.org/1999/xlink" x="0px" y="0px"
	 viewBox="-290 381 31 31" style="enable-background:new -290 381 31 31;" xml:space="preserve">
<style type="text/css">
	.st0{fill:#CA5B9B;}
</style>
<g>
	<g>
		<path class="st0" d="M-274.5,381c-8.5,0-15.5,7-15.5,15.5s7,15.5,15.5,15.5s15.5-7,15.5-15.5S-266,381-274.5,381z M-274.5,410.3
			c-3.8,0-7.2-1.5-9.7-4c-1-1-1.8-2.1-2.5-3.4c-1-1.9-1.6-4.1-1.6-6.4c0-7.6,6.2-13.8,13.8-13.8c3.6,0,6.9,1.4,9.4,3.7
			c1.3,1.1,2.3,2.6,3.1,4.1c0.9,1.8,1.4,3.8,1.4,6C-260.7,404.1-266.9,410.3-274.5,410.3z M-279.8,393c0.9,0,1.6,0.7,1.6,1.6h1.7
			c0-1.9-1.5-3.3-3.3-3.3s-3.3,1.4-3.3,3.3h1.7C-281.4,393.7-280.7,393-279.8,393z M-269.2,391.3c-1.8,0-3.3,1.4-3.3,3.3h1.7
			c0-0.9,0.7-1.6,1.6-1.6s1.6,0.7,1.6,1.6h1.7C-265.9,392.7-267.4,391.3-269.2,391.3z M-275.4,403.4c-2.3-0.3-4.5-1.6-5.8-3.6
			l-1.4,0.9c1.5,2.4,4.2,4,7,4.3c0.4,0,0.7,0.1,1.1,0.1c3.2,0,6.3-1.7,8.1-4.4l-1.4-0.9C-269.4,402.3-272.4,403.7-275.4,403.4z"/>
	</g>
</g>
</svg>
